<svg width="24" height="24" viewBox="0 0 24 24" fill="none" xmlns="http://www.w3.org/2000/svg">
<path d="M22.2083 6.43374H17.6233L18.0573 1.44974C18.0993 0.969073 17.7423 0.545577 17.2617 0.502411C16.7752 0.467411 16.3563 0.817409 16.3143 1.29924L15.8675 6.43257H8.49418L8.92584 1.4509C8.96901 0.969064 8.61084 0.545577 8.13251 0.502411C7.64251 0.467411 7.22601 0.817409 7.18401 1.29924L6.73834 6.43257H2.12067C1.63767 6.43257 1.24567 6.82574 1.24567 7.30757C1.24567 7.7894 1.63767 8.18257 2.12067 8.18257H6.58668L5.94501 15.5641H1.20834C0.725343 15.5641 0.333344 15.9561 0.333344 16.4391C0.333344 16.9221 0.725343 17.3141 1.20834 17.3141H5.79334L5.35934 22.2981C5.31734 22.7787 5.67434 23.2022 6.15501 23.2454L6.23201 23.2489C6.68118 23.2489 7.06268 22.9047 7.10235 22.4486L7.54917 17.3152H14.9225L14.4908 22.2969C14.4488 22.7787 14.8058 23.2022 15.2865 23.2454L15.3635 23.2489C15.8127 23.2489 16.1942 22.9047 16.2338 22.4486L16.6795 17.3152H21.296C21.7778 17.3152 22.171 16.9221 22.171 16.4402C22.171 15.9584 21.7778 15.5652 21.296 15.5652H16.83L17.4717 8.18374H22.2083C22.6913 8.18374 23.0833 7.79174 23.0833 7.30874C23.0833 6.82574 22.6913 6.43374 22.2083 6.43374ZM15.0742 15.5641H7.70085L8.34251 8.18374H15.7158L15.0742 15.5641Z" fill="black"/>
</svg>
