<svg width="14" height="12" viewBox="0 0 14 12" fill="none" xmlns="http://www.w3.org/2000/svg">
<path d="M12.5417 1.91669H0.875C0.392 1.91669 0 1.52352 0 1.04169C0 0.559854 0.392 0.166687 0.875 0.166687H12.5417C13.0247 0.166687 13.4167 0.55752 13.4167 1.04169C13.4167 1.52585 13.0247 1.91669 12.5417 1.91669ZM12.5417 6.71169H0.875C0.392 6.71169 0 6.31969 0 5.83669C0 5.35369 0.392 4.96169 0.875 4.96169H12.5417C13.0247 4.96169 13.4167 5.35369 13.4167 5.83669C13.4167 6.31969 13.0247 6.71169 12.5417 6.71169ZM6.70833 11.5067H0.875C0.392 11.5067 0 11.1159 0 10.6317C0 10.1475 0.392 9.75669 0.875 9.75669H6.70833C7.19133 9.75669 7.58333 10.1499 7.58333 10.6317C7.58333 11.1135 7.19133 11.5067 6.70833 11.5067Z" fill="black"/>
</svg>
