<svg width="24" height="24" viewBox="0 0 24 24" fill="none" xmlns="http://www.w3.org/2000/svg">
<path d="M23.3141 17.2943C23.2907 17.2757 20.8174 15.381 20.8606 10.2593C20.8839 7.30533 19.9132 4.68032 18.1224 2.86848C16.5182 1.24332 14.3459 0.34498 12.0067 0.333313H11.9916C9.65357 0.34498 7.48124 1.24333 5.8759 2.86966C4.08624 4.68149 3.11325 7.30533 3.13891 10.2593C3.18208 15.311 0.782239 17.2208 0.686572 17.2943C0.383239 17.5195 0.259573 17.9127 0.377406 18.272C0.496406 18.6313 0.832395 18.8728 1.20806 18.8728H6.94808C7.06708 21.5678 9.27789 23.7262 11.9997 23.7262C14.7216 23.7262 16.9301 21.5678 17.0479 18.8728H22.7902C23.1659 18.8728 23.5019 18.6325 23.6186 18.2732C23.7387 17.915 23.6151 17.5206 23.3117 17.2955L23.3141 17.2943ZM12.0009 21.9727C10.2451 21.9727 8.8159 20.5995 8.70157 18.8717H15.3002C15.1836 20.5983 13.7567 21.975 12.0009 21.975V21.9727ZM3.11091 17.1217C3.97424 15.801 4.91691 13.589 4.88891 10.243C4.86791 7.72298 5.64024 5.59732 7.12074 4.09815C8.3959 2.80665 10.1307 2.09148 12.0009 2.08331C13.8711 2.09265 15.6024 2.80666 16.8776 4.09933C18.3592 5.59849 19.1327 7.72299 19.1117 10.2442C19.0837 13.5902 20.0276 15.8033 20.8909 17.1228H3.11091V17.1217Z" fill="black"/>
</svg>
